<svg id="visual" viewBox="0 0 1230 540" width="1230" height="540" xmlns="http://www.w3.org/2000/svg" xmlns:xlink="http://www.w3.org/1999/xlink" version="1.1"><rect x="0" y="0" width="1230" height="540" fill="#fff"></rect><path d="M0 500L12 497.7C24 495.3 48 490.7 72.2 487.8C96.3 485 120.7 484 144.8 486.3C169 488.7 193 494.3 217 488C241 481.7 265 463.3 289.2 460.5C313.3 457.7 337.7 470.3 361.8 475.8C386 481.3 410 479.7 434 482.2C458 484.7 482 491.3 506.2 489.5C530.3 487.7 554.7 477.3 578.8 471.3C603 465.3 627 463.7 651.2 464C675.3 464.3 699.7 466.7 723.8 469.3C748 472 772 475 796 475.8C820 476.7 844 475.3 868.2 470.8C892.3 466.3 916.7 458.7 940.8 454.3C965 450 989 449 1013 453.3C1037 457.7 1061 467.3 1085.2 471.7C1109.3 476 1133.7 475 1157.8 467.8C1182 460.7 1206 447.3 1218 440.7L1230 434L1230 0L1218 0C1206 0 1182 0 1157.8 0C1133.7 0 1109.3 0 1085.2 0C1061 0 1037 0 1013 0C989 0 965 0 940.8 0C916.7 0 892.3 0 868.2 0C844 0 820 0 796 0C772 0 748 0 723.8 0C699.7 0 675.3 0 651.2 0C627 0 603 0 578.8 0C554.7 0 530.3 0 506.2 0C482 0 458 0 434 0C410 0 386 0 361.8 0C337.7 0 313.3 0 289.2 0C265 0 241 0 217 0C193 0 169 0 144.8 0C120.7 0 96.3 0 72.2 0C48 0 24 0 12 0L0 0Z" fill="#e5e7eb"></path><path d="M0 392L12 396.8C24 401.7 48 411.3 72.2 421.5C96.3 431.7 120.7 442.3 144.8 440.3C169 438.3 193 423.7 217 414.8C241 406 265 403 289.2 408.8C313.3 414.7 337.7 429.3 361.8 433.3C386 437.3 410 430.7 434 423.5C458 416.3 482 408.7 506.2 404.2C530.3 399.7 554.7 398.3 578.8 399C603 399.7 627 402.3 651.2 412C675.3 421.7 699.7 438.3 723.8 443.5C748 448.7 772 442.3 796 431.8C820 421.3 844 406.7 868.2 409.2C892.3 411.7 916.7 431.3 940.8 434.2C965 437 989 423 1013 419.7C1037 416.3 1061 423.7 1085.2 425.2C1109.3 426.7 1133.7 422.3 1157.8 419.5C1182 416.7 1206 415.3 1218 414.7L1230 414L1230 0L1218 0C1206 0 1182 0 1157.8 0C1133.7 0 1109.3 0 1085.2 0C1061 0 1037 0 1013 0C989 0 965 0 940.8 0C916.7 0 892.3 0 868.2 0C844 0 820 0 796 0C772 0 748 0 723.8 0C699.7 0 675.3 0 651.2 0C627 0 603 0 578.8 0C554.7 0 530.3 0 506.2 0C482 0 458 0 434 0C410 0 386 0 361.8 0C337.7 0 313.3 0 289.2 0C265 0 241 0 217 0C193 0 169 0 144.8 0C120.7 0 96.3 0 72.2 0C48 0 24 0 12 0L0 0Z" fill="#cdcfd5"></path><path d="M0 345L12 348.5C24 352 48 359 72.2 362.3C96.3 365.7 120.7 365.3 144.8 367.2C169 369 193 373 217 369.8C241 366.7 265 356.3 289.2 353.3C313.3 350.3 337.7 354.7 361.8 359.3C386 364 410 369 434 371.2C458 373.3 482 372.7 506.2 368.5C530.3 364.3 554.7 356.7 578.8 359.3C603 362 627 375 651.2 383C675.3 391 699.7 394 723.8 389.3C748 384.7 772 372.3 796 371.8C820 371.3 844 382.7 868.2 380.7C892.3 378.7 916.7 363.3 940.8 365.2C965 367 989 386 1013 395C1037 404 1061 403 1085.2 402.2C1109.3 401.3 1133.7 400.7 1157.8 397.7C1182 394.7 1206 389.3 1218 386.7L1230 384L1230 0L1218 0C1206 0 1182 0 1157.8 0C1133.7 0 1109.3 0 1085.2 0C1061 0 1037 0 1013 0C989 0 965 0 940.8 0C916.7 0 892.3 0 868.2 0C844 0 820 0 796 0C772 0 748 0 723.8 0C699.7 0 675.3 0 651.2 0C627 0 603 0 578.8 0C554.7 0 530.3 0 506.2 0C482 0 458 0 434 0C410 0 386 0 361.8 0C337.7 0 313.3 0 289.2 0C265 0 241 0 217 0C193 0 169 0 144.8 0C120.7 0 96.3 0 72.2 0C48 0 24 0 12 0L0 0Z" fill="#b5b8c0"></path><path d="M0 327L12 326.3C24 325.7 48 324.3 72.2 329.3C96.3 334.3 120.7 345.7 144.8 346.5C169 347.3 193 337.7 217 333.5C241 329.3 265 330.7 289.2 330.8C313.3 331 337.7 330 361.8 329.5C386 329 410 329 434 332.3C458 335.7 482 342.3 506.2 342.5C530.3 342.7 554.7 336.3 578.8 334.7C603 333 627 336 651.2 336.3C675.3 336.7 699.7 334.3 723.8 333.8C748 333.3 772 334.7 796 331C820 327.3 844 318.7 868.2 315.2C892.3 311.7 916.7 313.3 940.8 311.5C965 309.7 989 304.3 1013 307C1037 309.7 1061 320.3 1085.2 321C1109.3 321.7 1133.7 312.3 1157.8 315.2C1182 318 1206 333 1218 340.5L1230 348L1230 0L1218 0C1206 0 1182 0 1157.8 0C1133.7 0 1109.3 0 1085.2 0C1061 0 1037 0 1013 0C989 0 965 0 940.8 0C916.7 0 892.3 0 868.2 0C844 0 820 0 796 0C772 0 748 0 723.8 0C699.7 0 675.3 0 651.2 0C627 0 603 0 578.8 0C554.7 0 530.3 0 506.2 0C482 0 458 0 434 0C410 0 386 0 361.8 0C337.7 0 313.3 0 289.2 0C265 0 241 0 217 0C193 0 169 0 144.8 0C120.7 0 96.3 0 72.2 0C48 0 24 0 12 0L0 0Z" fill="#9ea2ab"></path><path d="M0 279L12 277.3C24 275.7 48 272.3 72.2 277.5C96.3 282.7 120.7 296.3 144.8 297.5C169 298.7 193 287.3 217 285.2C241 283 265 290 289.2 294.3C313.3 298.7 337.7 300.3 361.8 295.7C386 291 410 280 434 274.5C458 269 482 269 506.2 268.5C530.3 268 554.7 267 578.8 273.8C603 280.7 627 295.3 651.2 298.5C675.3 301.7 699.7 293.3 723.8 289.3C748 285.3 772 285.7 796 280.8C820 276 844 266 868.2 268.2C892.3 270.3 916.7 284.7 940.8 285.8C965 287 989 275 1013 276.7C1037 278.3 1061 293.7 1085.2 298.2C1109.3 302.7 1133.7 296.3 1157.8 288C1182 279.7 1206 269.3 1218 264.2L1230 259L1230 0L1218 0C1206 0 1182 0 1157.8 0C1133.7 0 1109.3 0 1085.2 0C1061 0 1037 0 1013 0C989 0 965 0 940.8 0C916.7 0 892.3 0 868.2 0C844 0 820 0 796 0C772 0 748 0 723.8 0C699.7 0 675.3 0 651.2 0C627 0 603 0 578.8 0C554.7 0 530.3 0 506.2 0C482 0 458 0 434 0C410 0 386 0 361.8 0C337.7 0 313.3 0 289.2 0C265 0 241 0 217 0C193 0 169 0 144.8 0C120.7 0 96.3 0 72.2 0C48 0 24 0 12 0L0 0Z" fill="#878c96"></path><path d="M0 214L12 217.3C24 220.7 48 227.3 72.2 231.5C96.3 235.7 120.7 237.3 144.8 238.3C169 239.3 193 239.7 217 236C241 232.3 265 224.7 289.2 219.5C313.3 214.3 337.7 211.7 361.8 210.7C386 209.7 410 210.3 434 214.7C458 219 482 227 506.2 233.3C530.3 239.7 554.7 244.3 578.8 243.7C603 243 627 237 651.2 238.8C675.3 240.7 699.7 250.3 723.8 248.3C748 246.3 772 232.7 796 227.3C820 222 844 225 868.2 225.8C892.3 226.7 916.7 225.3 940.8 231C965 236.7 989 249.3 1013 252.8C1037 256.3 1061 250.7 1085.2 250.2C1109.3 249.7 1133.7 254.3 1157.8 255C1182 255.7 1206 252.3 1218 250.7L1230 249L1230 0L1218 0C1206 0 1182 0 1157.8 0C1133.7 0 1109.3 0 1085.2 0C1061 0 1037 0 1013 0C989 0 965 0 940.8 0C916.7 0 892.3 0 868.2 0C844 0 820 0 796 0C772 0 748 0 723.8 0C699.7 0 675.3 0 651.2 0C627 0 603 0 578.8 0C554.7 0 530.3 0 506.2 0C482 0 458 0 434 0C410 0 386 0 361.8 0C337.7 0 313.3 0 289.2 0C265 0 241 0 217 0C193 0 169 0 144.8 0C120.7 0 96.3 0 72.2 0C48 0 24 0 12 0L0 0Z" fill="#717682"></path><path d="M0 212L12 207.2C24 202.3 48 192.7 72.2 189.7C96.3 186.7 120.7 190.3 144.8 189.8C169 189.3 193 184.7 217 181C241 177.3 265 174.7 289.2 175.8C313.3 177 337.7 182 361.8 185.3C386 188.7 410 190.3 434 189.8C458 189.3 482 186.7 506.2 188.3C530.3 190 554.7 196 578.8 194.3C603 192.7 627 183.3 651.2 181C675.3 178.7 699.7 183.3 723.8 182.5C748 181.7 772 175.3 796 173.8C820 172.3 844 175.7 868.2 177.2C892.3 178.7 916.7 178.3 940.8 183.3C965 188.3 989 198.7 1013 201.3C1037 204 1061 199 1085.2 196C1109.3 193 1133.7 192 1157.8 194.5C1182 197 1206 203 1218 206L1230 209L1230 0L1218 0C1206 0 1182 0 1157.8 0C1133.7 0 1109.3 0 1085.2 0C1061 0 1037 0 1013 0C989 0 965 0 940.8 0C916.7 0 892.3 0 868.2 0C844 0 820 0 796 0C772 0 748 0 723.8 0C699.7 0 675.3 0 651.2 0C627 0 603 0 578.8 0C554.7 0 530.3 0 506.2 0C482 0 458 0 434 0C410 0 386 0 361.8 0C337.7 0 313.3 0 289.2 0C265 0 241 0 217 0C193 0 169 0 144.8 0C120.7 0 96.3 0 72.2 0C48 0 24 0 12 0L0 0Z" fill="#5b626e"></path><path d="M0 147L12 143.7C24 140.3 48 133.7 72.2 135C96.3 136.3 120.7 145.7 144.8 147.7C169 149.7 193 144.3 217 144.2C241 144 265 149 289.2 152C313.3 155 337.7 156 361.8 154.7C386 153.3 410 149.7 434 144.8C458 140 482 134 506.2 135.5C530.3 137 554.7 146 578.8 149.5C603 153 627 151 651.2 145.2C675.3 139.3 699.7 129.7 723.8 129.7C748 129.7 772 139.3 796 143.7C820 148 844 147 868.2 148.2C892.3 149.3 916.7 152.7 940.8 151.5C965 150.3 989 144.7 1013 140.2C1037 135.7 1061 132.3 1085.2 132.2C1109.3 132 1133.7 135 1157.8 139.5C1182 144 1206 150 1218 153L1230 156L1230 0L1218 0C1206 0 1182 0 1157.8 0C1133.7 0 1109.3 0 1085.2 0C1061 0 1037 0 1013 0C989 0 965 0 940.8 0C916.7 0 892.3 0 868.2 0C844 0 820 0 796 0C772 0 748 0 723.8 0C699.7 0 675.3 0 651.2 0C627 0 603 0 578.8 0C554.7 0 530.3 0 506.2 0C482 0 458 0 434 0C410 0 386 0 361.8 0C337.7 0 313.3 0 289.2 0C265 0 241 0 217 0C193 0 169 0 144.8 0C120.7 0 96.3 0 72.2 0C48 0 24 0 12 0L0 0Z" fill="#474e5b"></path><path d="M0 78L12 77.7C24 77.3 48 76.7 72.2 76.8C96.3 77 120.7 78 144.8 77.5C169 77 193 75 217 76.5C241 78 265 83 289.2 86C313.3 89 337.7 90 361.8 87.8C386 85.7 410 80.3 434 81C458 81.7 482 88.3 506.2 90C530.3 91.7 554.7 88.3 578.8 86.5C603 84.7 627 84.3 651.2 84.3C675.3 84.3 699.7 84.7 723.8 84.5C748 84.3 772 83.7 796 81.8C820 80 844 77 868.2 82.2C892.3 87.3 916.7 100.7 940.8 107.7C965 114.7 989 115.3 1013 112.7C1037 110 1061 104 1085.2 102.8C1109.3 101.7 1133.7 105.3 1157.8 108.8C1182 112.3 1206 115.7 1218 117.3L1230 119L1230 0L1218 0C1206 0 1182 0 1157.8 0C1133.7 0 1109.3 0 1085.2 0C1061 0 1037 0 1013 0C989 0 965 0 940.8 0C916.7 0 892.3 0 868.2 0C844 0 820 0 796 0C772 0 748 0 723.8 0C699.7 0 675.3 0 651.2 0C627 0 603 0 578.8 0C554.7 0 530.3 0 506.2 0C482 0 458 0 434 0C410 0 386 0 361.8 0C337.7 0 313.3 0 289.2 0C265 0 241 0 217 0C193 0 169 0 144.8 0C120.7 0 96.3 0 72.2 0C48 0 24 0 12 0L0 0Z" fill="#323b49"></path><path d="M0 55L12 52.5C24 50 48 45 72.2 41.3C96.3 37.7 120.7 35.3 144.8 37.2C169 39 193 45 217 47.8C241 50.7 265 50.3 289.2 46.7C313.3 43 337.7 36 361.8 33.3C386 30.7 410 32.3 434 32.8C458 33.3 482 32.7 506.2 38.5C530.3 44.3 554.7 56.7 578.8 59.3C603 62 627 55 651.2 54.2C675.3 53.3 699.7 58.7 723.8 56.8C748 55 772 46 796 39.8C820 33.7 844 30.3 868.2 29.3C892.3 28.3 916.7 29.7 940.8 35.8C965 42 989 53 1013 52C1037 51 1061 38 1085.2 32.7C1109.3 27.3 1133.7 29.7 1157.8 36.3C1182 43 1206 54 1218 59.5L1230 65L1230 0L1218 0C1206 0 1182 0 1157.8 0C1133.7 0 1109.3 0 1085.2 0C1061 0 1037 0 1013 0C989 0 965 0 940.8 0C916.7 0 892.3 0 868.2 0C844 0 820 0 796 0C772 0 748 0 723.8 0C699.7 0 675.3 0 651.2 0C627 0 603 0 578.8 0C554.7 0 530.3 0 506.2 0C482 0 458 0 434 0C410 0 386 0 361.8 0C337.7 0 313.3 0 289.2 0C265 0 241 0 217 0C193 0 169 0 144.8 0C120.7 0 96.3 0 72.2 0C48 0 24 0 12 0L0 0Z" fill="#1f2937"></path></svg>