<svg id="visual" viewBox="0 0 1230 540" width="1230" height="540" xmlns="http://www.w3.org/2000/svg" xmlns:xlink="http://www.w3.org/1999/xlink" version="1.1"><rect x="0" y="0" width="1230" height="540" fill="#fff"></rect><path d="M0 234L15.8 232.7C31.7 231.3 63.3 228.7 94.8 224.7C126.3 220.7 157.7 215.3 189.2 216.2C220.7 217 252.3 224 283.8 224.3C315.3 224.7 346.7 218.3 378.2 214.7C409.7 211 441.3 210 473 209.2C504.7 208.3 536.3 207.7 567.8 209.5C599.3 211.3 630.7 215.7 662.2 219C693.7 222.3 725.3 224.7 757 223C788.7 221.3 820.3 215.7 851.8 212.5C883.3 209.3 914.7 208.7 946.2 212.8C977.7 217 1009.3 226 1040.8 225.8C1072.3 225.7 1103.7 216.3 1135.2 214.7C1166.7 213 1198.3 219 1214.2 222L1230 225L1230 0L1214.2 0C1198.3 0 1166.7 0 1135.2 0C1103.7 0 1072.3 0 1040.8 0C1009.3 0 977.7 0 946.2 0C914.7 0 883.3 0 851.8 0C820.3 0 788.7 0 757 0C725.3 0 693.7 0 662.2 0C630.7 0 599.3 0 567.8 0C536.3 0 504.7 0 473 0C441.3 0 409.7 0 378.2 0C346.7 0 315.3 0 283.8 0C252.3 0 220.7 0 189.2 0C157.7 0 126.3 0 94.8 0C63.3 0 31.7 0 15.8 0L0 0Z" fill="#ffffff"></path><path d="M0 174L15.8 175.7C31.7 177.3 63.3 180.7 94.8 180.3C126.3 180 157.7 176 189.2 175C220.7 174 252.3 176 283.8 179.5C315.3 183 346.7 188 378.2 189.7C409.7 191.3 441.3 189.7 473 186C504.7 182.3 536.3 176.7 567.8 176.2C599.3 175.7 630.7 180.3 662.2 183.7C693.7 187 725.3 189 757 188.5C788.7 188 820.3 185 851.8 182.2C883.3 179.3 914.7 176.7 946.2 175.5C977.7 174.3 1009.3 174.7 1040.8 178.2C1072.3 181.7 1103.7 188.3 1135.2 190.5C1166.7 192.7 1198.3 190.3 1214.2 189.2L1230 188L1230 0L1214.2 0C1198.3 0 1166.7 0 1135.2 0C1103.7 0 1072.3 0 1040.8 0C1009.3 0 977.7 0 946.2 0C914.7 0 883.3 0 851.8 0C820.3 0 788.7 0 757 0C725.3 0 693.7 0 662.2 0C630.7 0 599.3 0 567.8 0C536.3 0 504.7 0 473 0C441.3 0 409.7 0 378.2 0C346.7 0 315.3 0 283.8 0C252.3 0 220.7 0 189.2 0C157.7 0 126.3 0 94.8 0C63.3 0 31.7 0 15.8 0L0 0Z" fill="#e1e1e1"></path><path d="M0 153L15.8 153.3C31.7 153.7 63.3 154.3 94.8 151.8C126.3 149.3 157.7 143.7 189.2 142.8C220.7 142 252.3 146 283.8 147.7C315.3 149.3 346.7 148.7 378.2 147.8C409.7 147 441.3 146 473 146.2C504.7 146.3 536.3 147.7 567.8 147C599.3 146.3 630.7 143.7 662.2 141.7C693.7 139.7 725.3 138.3 757 141C788.7 143.7 820.3 150.3 851.8 150.7C883.3 151 914.7 145 946.2 145.3C977.7 145.7 1009.3 152.3 1040.8 152.3C1072.3 152.3 1103.7 145.7 1135.2 145.2C1166.7 144.7 1198.3 150.3 1214.2 153.2L1230 156L1230 0L1214.2 0C1198.3 0 1166.7 0 1135.2 0C1103.7 0 1072.3 0 1040.8 0C1009.3 0 977.7 0 946.2 0C914.7 0 883.3 0 851.8 0C820.3 0 788.7 0 757 0C725.3 0 693.7 0 662.2 0C630.7 0 599.3 0 567.8 0C536.3 0 504.7 0 473 0C441.3 0 409.7 0 378.2 0C346.7 0 315.3 0 283.8 0C252.3 0 220.7 0 189.2 0C157.7 0 126.3 0 94.8 0C63.3 0 31.7 0 15.8 0L0 0Z" fill="#c3c3c3"></path><path d="M0 116L15.8 116.8C31.7 117.7 63.3 119.3 94.8 117.3C126.3 115.3 157.7 109.7 189.2 108.5C220.7 107.3 252.3 110.7 283.8 113.5C315.3 116.3 346.7 118.7 378.2 119.8C409.7 121 441.3 121 473 118C504.7 115 536.3 109 567.8 109C599.3 109 630.7 115 662.2 117.7C693.7 120.3 725.3 119.7 757 116.5C788.7 113.3 820.3 107.7 851.8 105C883.3 102.3 914.7 102.7 946.2 102.8C977.7 103 1009.3 103 1040.8 105.2C1072.3 107.3 1103.7 111.7 1135.2 113.5C1166.7 115.3 1198.3 114.7 1214.2 114.3L1230 114L1230 0L1214.2 0C1198.3 0 1166.7 0 1135.2 0C1103.7 0 1072.3 0 1040.8 0C1009.3 0 977.7 0 946.2 0C914.7 0 883.3 0 851.8 0C820.3 0 788.7 0 757 0C725.3 0 693.7 0 662.2 0C630.7 0 599.3 0 567.8 0C536.3 0 504.7 0 473 0C441.3 0 409.7 0 378.2 0C346.7 0 315.3 0 283.8 0C252.3 0 220.7 0 189.2 0C157.7 0 126.3 0 94.8 0C63.3 0 31.7 0 15.8 0L0 0Z" fill="#a7a7a7"></path><path d="M0 75L15.8 73.7C31.7 72.3 63.3 69.7 94.8 69.5C126.3 69.3 157.7 71.7 189.2 71.3C220.7 71 252.3 68 283.8 67.8C315.3 67.7 346.7 70.3 378.2 73.7C409.7 77 441.3 81 473 83C504.7 85 536.3 85 567.8 81.5C599.3 78 630.7 71 662.2 71.2C693.7 71.3 725.3 78.7 757 80.7C788.7 82.7 820.3 79.3 851.8 79.3C883.3 79.3 914.7 82.7 946.2 83.5C977.7 84.3 1009.3 82.7 1040.8 79.7C1072.3 76.7 1103.7 72.3 1135.2 70.3C1166.7 68.3 1198.3 68.7 1214.2 68.8L1230 69L1230 0L1214.2 0C1198.3 0 1166.7 0 1135.2 0C1103.7 0 1072.3 0 1040.8 0C1009.3 0 977.7 0 946.2 0C914.7 0 883.3 0 851.8 0C820.3 0 788.7 0 757 0C725.3 0 693.7 0 662.2 0C630.7 0 599.3 0 567.8 0C536.3 0 504.7 0 473 0C441.3 0 409.7 0 378.2 0C346.7 0 315.3 0 283.8 0C252.3 0 220.7 0 189.2 0C157.7 0 126.3 0 94.8 0C63.3 0 31.7 0 15.8 0L0 0Z" fill="#8b8b8b"></path><path d="M0 38L15.8 39.7C31.7 41.3 63.3 44.7 94.8 45.2C126.3 45.7 157.7 43.3 189.2 40.3C220.7 37.3 252.3 33.7 283.8 31.7C315.3 29.7 346.7 29.3 378.2 30.7C409.7 32 441.3 35 473 37.7C504.7 40.3 536.3 42.7 567.8 43.2C599.3 43.7 630.7 42.3 662.2 41.3C693.7 40.3 725.3 39.7 757 40.2C788.7 40.7 820.3 42.3 851.8 44C883.3 45.7 914.7 47.3 946.2 46.7C977.7 46 1009.3 43 1040.8 39.2C1072.3 35.3 1103.7 30.7 1135.2 28.8C1166.7 27 1198.3 28 1214.2 28.5L1230 29L1230 0L1214.2 0C1198.3 0 1166.7 0 1135.2 0C1103.7 0 1072.3 0 1040.8 0C1009.3 0 977.7 0 946.2 0C914.7 0 883.3 0 851.8 0C820.3 0 788.7 0 757 0C725.3 0 693.7 0 662.2 0C630.7 0 599.3 0 567.8 0C536.3 0 504.7 0 473 0C441.3 0 409.7 0 378.2 0C346.7 0 315.3 0 283.8 0C252.3 0 220.7 0 189.2 0C157.7 0 126.3 0 94.8 0C63.3 0 31.7 0 15.8 0L0 0Z" fill="#707070"></path></svg>